P3
4 4
255
0 0 0 255 0 0 
0 0 0 0 255 
0 255 255 255 255 
0 255 0 0 0 
0 255 0 255 255 
0 0 0 255 125 
0 255 255 0 125 
0 0 255 255 255 
0 125 125 125 239 
239 239
